<?xml version="1.0" encoding="iso-8859-1"?>
<!-- Generator: Adobe Illustrator 19.0.0, SVG Export Plug-In . SVG Version: 6.00 Build 0)  -->
<svg version="1.1" id="Layer_1" xmlns="http://www.w3.org/2000/svg" xmlns:xlink="http://www.w3.org/1999/xlink" x="0px" y="0px"
	 viewBox="0 0 512 512" style="enable-background:new 0 0 512 512;" xml:space="preserve">
<circle id="background_79_" style="fill:#E27C3E;" cx="256" cy="256" r="256"/>
<path style="fill:#F2F2F2;" d="M403.435,385.934c0,9.426-7.641,17.066-17.066,17.066H125.501c-9.426,0-17.066-7.641-17.066-17.066
	V126.066c0-9.426,7.641-17.066,17.066-17.066h260.867c9.426,0,17.066,7.641,17.066,17.066L403.435,385.934L403.435,385.934z"/>
<path style="fill:#7C9BAD;" d="M254.452,359.255c-59.224,0-107.407-48.184-107.407-107.408c0-59.227,48.184-107.41,107.407-107.41
	c59.225,0,107.41,48.184,107.41,107.41C361.862,311.071,313.677,359.255,254.452,359.255z"/>
<circle style="fill:#233540;" cx="254.453" cy="251.847" r="91.255"/>
<path style="fill:#355061;" d="M234.329,241.979l-16.068-73.913c11.098-4.8,23.331-7.477,36.194-7.477
	c12.59,0,24.581,2.553,35.493,7.16l-15.203,69.937L234.329,241.979z"/>
<path style="fill:#355061;" d="M321.935,313.275l-56.982-51.562l5.368-6.385l66.651,35.504
	C333.075,299.061,327.995,306.622,321.935,313.275z"/>
<path style="fill:#355061;" d="M234.329,261.713l-16.068,73.915c11.098,4.799,23.331,7.474,36.194,7.474
	c12.59,0,24.581-2.55,35.493-7.16l-15.203-69.935L234.329,261.713z"/>
<path style="fill:#355061;" d="M254.452,294.647c-23.601,0-42.801-19.2-42.801-42.8c0-23.602,19.2-42.802,42.801-42.802
	c23.604,0,42.803,19.2,42.803,42.802C297.255,275.446,278.056,294.647,254.452,294.647z"/>
<path style="fill:#E27C3E;" d="M254.452,289.526c-20.777,0-37.68-16.903-37.68-37.68c0-20.778,16.902-37.682,37.68-37.682
	c20.779,0,37.684,16.903,37.684,37.682C292.136,272.623,275.232,289.526,254.452,289.526z"/>
<path style="fill:#233540;" d="M254.454,270.172c-10.105,0-18.326-8.222-18.326-18.325c0-10.105,8.221-18.326,18.326-18.326
	c10.103,0,18.324,8.221,18.324,18.326C272.778,261.95,264.557,270.172,254.454,270.172z"/>
<path style="fill:#FFFFFF;" d="M254.454,256.305c-2.459,0-4.459-2-4.459-4.458c0-2.458,2-4.46,4.459-4.46
	c2.457,0,4.457,2.002,4.457,4.46C258.911,254.305,256.911,256.305,254.454,256.305z"/>
<polygon style="fill:#7C9BAD;" points="190.592,323.935 190.649,323.872 188.107,321.594 185.625,319.252 185.566,319.315 
	169.023,304.488 163.149,331.045 169.454,336.842 174.48,341.462 180.765,347.24 206.745,339.167 "/>
<path style="fill:none;stroke:#7C9BAD;stroke-width:1.7067;stroke-miterlimit:10;" d="M369.548,388.377
	c-6.617,0-12.001-5.384-12.001-12.002c0-6.616,5.384-12,12.001-12s12,5.384,12,12C381.548,382.993,376.165,388.377,369.548,388.377z
	"/>
<path style="fill:#EFC84A;" d="M369.548,384.963c-4.736,0-8.588-3.852-8.588-8.588c0-4.733,3.852-8.587,8.588-8.587
	c4.734,0,8.588,3.854,8.588,8.587C378.136,381.111,374.282,384.963,369.548,384.963z"/>
<path style="fill:none;stroke:#7C9BAD;stroke-width:1.7067;stroke-miterlimit:10;" d="M333.708,388.377
	c-6.618,0-12.002-5.384-12.002-12.002c0-6.616,5.384-12,12.002-12c6.617,0,12,5.384,12,12
	C345.708,382.993,340.325,388.377,333.708,388.377z"/>
<path style="fill:#E27C3E;" d="M333.708,384.963c-4.736,0-8.588-3.852-8.588-8.588c0-4.733,3.852-8.587,8.588-8.587
	c4.734,0,8.587,3.854,8.587,8.587C342.295,381.111,338.442,384.963,333.708,384.963z"/>
<path style="fill:none;stroke:#7C9BAD;stroke-width:1.7067;stroke-miterlimit:10;" d="M297.868,388.377
	c-6.618,0-12.002-5.384-12.002-12.002c0-6.616,5.384-12,12.002-12c6.617,0,12,5.384,12,12
	C309.868,382.993,304.485,388.377,297.868,388.377z"/>
<path style="fill:#334D5C;" d="M297.868,384.963c-4.736,0-8.588-3.852-8.588-8.588c0-4.733,3.852-8.587,8.588-8.587
	c4.733,0,8.587,3.854,8.587,8.587C306.455,381.111,302.602,384.963,297.868,384.963z"/>
<circle style="fill:#7C9BAD;" cx="367.841" cy="151.951" r="22.133"/>
<circle style="fill:#EFC84A;stroke:#F2F2F2;stroke-width:5.12;stroke-miterlimit:10;" cx="367.841" cy="151.951" r="12.001"/>
<g>
	<path style="fill:#EFC84A;" d="M365.282,151.951c-2.286,18.965-4.572,37.93-6.858,56.895c0.145-1.197,1.286-2.159-0.298-0.611
		c-1.401,1.369-2.804,2.739-4.205,4.108c-4.445,4.341-8.89,8.683-13.334,13.024c-6.897,6.736-13.794,13.473-20.691,20.209
		c-2.365,2.311,1.258,5.928,3.621,3.621c6.896-6.737,13.793-13.474,20.69-20.21c4.444-4.342,8.89-8.683,13.334-13.024
		c1.747-1.707,5.658-4.258,5.98-6.918c2.293-19.031,4.588-38.062,6.881-57.094C370.796,148.678,365.672,148.716,365.282,151.951
		L365.282,151.951z"/>
</g>
<g>
	<path style="fill:#EFC84A;" d="M327.013,242.745c1.876,2.099,1.694,5.352-0.405,7.229l-1.272,1.137
		c-2.099,1.877-5.352,1.695-7.229-0.405c-1.876-2.1-1.694-5.353,0.406-7.229l1.271-1.136
		C321.884,240.464,325.137,240.646,327.013,242.745z"/>
</g>
<g>
</g>
<g>
</g>
<g>
</g>
<g>
</g>
<g>
</g>
<g>
</g>
<g>
</g>
<g>
</g>
<g>
</g>
<g>
</g>
<g>
</g>
<g>
</g>
<g>
</g>
<g>
</g>
<g>
</g>
</svg>
