<!--?xml version="1.0" encoding="UTF-8" standalone="no"?-->
<svg viewBox="0 0 17 16" version="1.1" xmlns="http://www.w3.org/2000/svg" xmlns:xlink="http://www.w3.org/1999/xlink" class="si-glyph si-glyph-circle-error">
    <!-- Generator: Sketch 3.0.3 (7891) - http://www.bohemiancoding.com/sketch -->
    <title>1048</title>
    
    <defs></defs>
    <g stroke="none" stroke-width="1" fill="none" fill-rule="evenodd">
        <path d="M13.618,2.397 C10.513,-0.708 5.482,-0.713 2.383,2.386 C-0.718,5.488 -0.715,10.517 2.392,13.622 C5.497,16.727 10.529,16.731 13.627,13.632 C16.727,10.533 16.724,5.502 13.618,2.397 L13.618,2.397 Z M9.615,11.351 L7.927,9.663 L6.239,11.351 C5.55,12.04 5.032,12.64 4.21,11.819 C3.39,10.998 3.987,10.48 4.679,9.79 L6.367,8.103 L4.679,6.415 C3.989,5.726 3.39,5.208 4.21,4.386 C5.032,3.566 5.55,4.165 6.239,4.855 L7.927,6.541 L9.615,4.855 C10.305,4.166 10.82,3.565 11.642,4.386 C12.464,5.208 11.865,5.726 11.175,6.415 L9.487,8.102 L11.175,9.789 C11.864,10.48 12.464,10.998 11.642,11.819 C10.822,12.64 10.305,12.04 9.615,11.351 L9.615,11.351 Z" fill="#656565" class="si-glyph-fill"></path>
    </g>
</svg>