<?xml version="1.0"?>
<svg xmlns="http://www.w3.org/2000/svg" viewBox="0 0 30 30" width="50px" height="50px">
    <path fill="#000000" d="M15,3C8.373,3,3,8.373,3,15c0,6.627,5.373,12,12,12s12-5.373,12-12C27,8.373,21.627,3,15,3z M16.414,15 c0,0,3.139,3.139,3.293,3.293c0.391,0.391,0.391,1.024,0,1.414c-0.391,0.391-1.024,0.391-1.414,0C18.139,19.554,15,16.414,15,16.414 s-3.139,3.139-3.293,3.293c-0.391,0.391-1.024,0.391-1.414,0c-0.391-0.391-0.391-1.024,0-1.414C10.446,18.139,13.586,15,13.586,15 s-3.139-3.139-3.293-3.293c-0.391-0.391-0.391-1.024,0-1.414c0.391-0.391,1.024-0.391,1.414,0C11.861,10.446,15,13.586,15,13.586 s3.139-3.139,3.293-3.293c0.391-0.391,1.024-0.391,1.414,0c0.391,0.391,0.391,1.024,0,1.414C19.554,11.861,16.414,15,16.414,15z"/>
</svg>
