<?xml version="1.0"?>
<svg xmlns="http://www.w3.org/2000/svg" xmlns:xlink="http://www.w3.org/1999/xlink" version="1.1" viewBox="0 0 252 252" width="100px" height="100px"><g fill="none" fill-rule="nonzero" stroke="none" stroke-width="1" stroke-linecap="butt" stroke-linejoin="miter" stroke-miterlimit="10" stroke-dasharray="" stroke-dashoffset="0" font-family="none" font-weight="none" font-size="none" text-anchor="none" style="mix-blend-mode: normal"><path d="M0,252v-252h252v252z" fill="none"/><g id="original-icon" fill="#000000" opacity="0" visibility="hidden"><path d="M126,25.2c-55.6668,0 -100.8,45.1332 -100.8,100.8c0,55.6668 45.1332,100.8 100.8,100.8c55.6668,0 100.8,-45.1332 100.8,-100.8c0,-55.6668 -45.1332,-100.8 -100.8,-100.8zM174.77578,57.70078c7.5348,5.3928 14.13063,11.98864 19.52343,19.52344l-27.31641,19.50703c-3.234,-4.5192 -7.19486,-8.48006 -11.71406,-11.71406zM126,92.4c18.5556,0 33.6,15.0444 33.6,33.6c0,18.5556 -15.0444,33.6 -33.6,33.6c-18.5556,0 -33.6,-15.0444 -33.6,-33.6c0,-18.5556 15.0444,-33.6 33.6,-33.6zM126,117.6c-4.63919,0 -8.4,3.76081 -8.4,8.4c0,4.63919 3.76081,8.4 8.4,8.4c4.63919,0 8.4,-3.76081 8.4,-8.4c0,-4.63919 -3.76081,-8.4 -8.4,-8.4zM85.01719,155.26875c3.234,4.5192 7.19486,8.48006 11.71406,11.71406l-19.50703,27.31641c-7.5348,-5.3928 -14.13064,-11.98863 -19.52344,-19.52343z"/></g><g id="subtracted-icon" fill="#000000"><path d="M25.2,126c0,-55.6668 45.1332,-100.8 100.8,-100.8c55.48542,0 100.50577,44.83956 100.79856,100.2562c-10.121,-5.02874 -21.52924,-7.8562 -33.59856,-7.8562c-12.07159,0 -23.48185,2.82852 -33.60427,7.85903c-0.28901,-18.30615 -15.22079,-33.05903 -33.59573,-33.05903c-18.5556,0 -33.6,15.0444 -33.6,33.6c0,18.37494 14.75288,33.30672 33.05903,33.59573c-5.03051,10.12242 -7.85903,21.53268 -7.85903,33.60427c0,12.06932 2.82746,23.47757 7.8562,33.59856c-55.41663,-0.29279 -100.2562,-45.31314 -100.2562,-100.79856zM155.26875,85.01719c4.5192,3.234 8.48006,7.19486 11.71406,11.71406l27.31641,-19.50703c-5.3928,-7.5348 -11.98863,-14.13064 -19.52343,-19.52344zM134.4,126c0,4.63919 -3.76081,8.4 -8.4,8.4c-4.63919,0 -8.4,-3.76081 -8.4,-8.4c0,-4.63919 3.76081,-8.4 8.4,-8.4c4.63919,0 8.4,3.76081 8.4,8.4zM57.70078,174.77578c5.3928,7.5348 11.98864,14.13063 19.52344,19.52343l19.50703,-27.31641c-4.5192,-3.234 -8.48006,-7.19486 -11.71406,-11.71406z"/></g><g fill="#000000"><g id="Layer_1"><path d="M193.2,134.4c-32.4744,0 -58.8,26.3256 -58.8,58.8c0,32.4744 26.3256,58.8 58.8,58.8c32.4744,0 58.8,-26.3256 58.8,-58.8c0,-32.4744 -26.3256,-58.8 -58.8,-58.8zM218.4,201.6h-16.8v16.8c0,4.6452 -3.7632,8.4 -8.4,8.4c-4.6368,0 -8.4,-3.7548 -8.4,-8.4v-16.8h-16.8c-4.6368,0 -8.4,-3.7548 -8.4,-8.4c0,-4.6452 3.7632,-8.4 8.4,-8.4h16.8v-16.8c0,-4.6452 3.7632,-8.4 8.4,-8.4c4.6368,0 8.4,3.7548 8.4,8.4v16.8h16.8c4.6368,0 8.4,3.7548 8.4,8.4c0,4.6452 -3.7632,8.4 -8.4,8.4z"/></g></g></g></svg>
