
<svg viewBox="0 0 17 16" version="1.1" xmlns="http://www.w3.org/2000/svg" xmlns:xlink="http://www.w3.org/1999/xlink" class="si-glyph si-glyph-disc-add"><title>905</title><defs></defs><g stroke="none" stroke-width="1" fill="none" fill-rule="evenodd"><g transform="translate(1.000000, 0.000000)" fill="#656565"><g transform="translate(6.000000, 6.000000)"><rect x="4" y="6" width="5.938" height="1.969" class="si-glyph-fill"></rect><rect x="6" y="4" width="1.97" height="5.938" class="si-glyph-fill"></rect><path d="M1.988,0.022 C0.892,0.022 0.00899999996,0.908 0.00899999996,1.999 C0.00899999996,3.091 0.893,3.975 1.988,3.975 C3.079,3.975 3.967,3.091 3.967,1.999 C3.967,0.908 3.079,0.022 1.988,0.022 L1.988,0.022 Z" class="si-glyph-fill"></path></g><path d="M15.958,7.969 C15.958,3.556 12.385,0.063 7.979,0.063 C3.573,0.063 0,3.556 0,7.969 C0,12.381 3.572,15.958 7.979,15.958 C8.319,15.958 8.653,15.932 8.98,15.887 L8.98,10.952 C8.672,11.058 8.345,11.125 8.001,11.125 C6.28,11.125 4.886,9.719 4.886,7.985 C4.886,6.25 6.281,4.843 8.001,4.843 C9.72,4.843 11.116,6.249 11.116,7.985 C11.116,8.341 11.044,8.68 10.934,9 L15.867,9 C15.92,8.652 15.958,8.307 15.958,7.969 L15.958,7.969 Z M5.15,11.676 L3.632,13.194 L2.764,12.325 L4.282,10.807 L5.15,11.676 L5.15,11.676 Z M11.612,5.277 L10.743,4.408 L12.261,2.89 L13.13,3.759 L11.612,5.277 L11.612,5.277 Z" class="si-glyph-fill"></path></g></g></svg>