<?xml version="1.0" encoding="UTF-8"?>
<svg xmlns="http://www.w3.org/2000/svg" xmlns:xlink="http://www.w3.org/1999/xlink" viewBox="0 0 50 50" version="1.1" width="50px" height="50px">
<g id="surface1">
<path fill="#000000" style=" " d="M 9 19 C 5.691406 19 3 21.691406 3 25 C 3 28.308594 5.691406 31 9 31 C 12.308594 31 15 28.308594 15 25 C 15 21.691406 12.308594 19 9 19 Z M 25 19 C 21.691406 19 19 21.691406 19 25 C 19 28.308594 21.691406 31 25 31 C 28.308594 31 31 28.308594 31 25 C 31 21.691406 28.308594 19 25 19 Z M 41 19 C 37.691406 19 35 21.691406 35 25 C 35 28.308594 37.691406 31 41 31 C 44.308594 31 47 28.308594 47 25 C 47 21.691406 44.308594 19 41 19 Z "/>
</g>
</svg>
