<?xml version="1.0"?>
<svg xmlns="http://www.w3.org/2000/svg" viewBox="0 0 30 30" width="100px" height="100px">
    <path fill="#000000" d="M25.983,13.342C25.988,13.228,26,13.116,26,13c0-4.418-3.582-8-8-8c-3.11,0-5.8,1.779-7.123,4.371 C10.296,9.136,9.665,9,9,9c-2.53,0-4.599,1.885-4.932,4.324C1.703,14.129,0,16.363,0,19c0,3.314,2.686,6,6,6h18 c3.314,0,6-2.686,6-6C30,16.382,28.321,14.162,25.983,13.342z M18.707,18.707l-3,3C15.512,21.902,15.256,22,15,22 s-0.512-0.098-0.707-0.293l-3-3c-0.391-0.391-0.391-1.023,0-1.414s1.023-0.391,1.414,0L14,18.586V13c0-0.552,0.447-1,1-1 s1,0.448,1,1v5.586l1.293-1.293c0.391-0.391,1.023-0.391,1.414,0S19.098,18.316,18.707,18.707z"/>
</svg>
