<?xml version="1.0" encoding="UTF-8"?>
<svg xmlns="http://www.w3.org/2000/svg" xmlns:xlink="http://www.w3.org/1999/xlink" viewBox="0 0 24 24" version="1.1" width="24px" height="24px">
<g id="surface1">
<path fill="#000000" style=" " d="M 12 3 C 10.894531 3 10 3.894531 10 5 C 10 6.105469 10.894531 7 12 7 C 13.105469 7 14 6.105469 14 5 C 14 3.894531 13.105469 3 12 3 Z M 12 10 C 10.894531 10 10 10.894531 10 12 C 10 13.105469 10.894531 14 12 14 C 13.105469 14 14 13.105469 14 12 C 14 10.894531 13.105469 10 12 10 Z M 12 17 C 10.894531 17 10 17.894531 10 19 C 10 20.105469 10.894531 21 12 21 C 13.105469 21 14 20.105469 14 19 C 14 17.894531 13.105469 17 12 17 Z "/>
</g>
</svg>
