<svg fill="#000000" xmlns="http://www.w3.org/2000/svg"  viewBox="0 0 48 48" width="48px" height="48px"><path d="M 24.673828 4.0097656 C 24.315891 3.9681875 23.950984 4.0575781 23.646484 4.2675781 C 23.241484 4.5465781 23 5.008 23 5.5 L 23 31.152344 C 21.194718 29.822923 18.723795 29 16 29 C 10.486 29 6 32.365 6 36.5 C 6 40.635 10.486 44 16 44 C 21.514 44 26 40.635 26 36.5 L 26 16.664062 L 39.972656 21.904297 C 40.432656 22.077297 40.947516 22.013422 41.353516 21.732422 C 41.758516 21.453422 42 20.992 42 20.5 L 42 14.964844 C 42 12.270844 40.306203 9.8259062 37.783203 8.8789062 L 25.027344 4.0957031 C 24.912344 4.0524531 24.793141 4.023625 24.673828 4.0097656 z"/></svg>