<?xml version="1.0"?><svg fill="#000000" xmlns="http://www.w3.org/2000/svg"  viewBox="0 0 50 50" width="50px" height="50px">    <path d="M27,8c2.732,0,3.63,0.537,4.767,1.217c1.451,0.868,3.096,1.852,7.233,1.858V16c-3.281,0-4.348-0.669-5.478-1.378 C32.309,13.862,30.934,13,28,13c-0.327,0-0.669,0.04-1,0.146V8 M25,33.61V36c0,3.8-0.829,6-5.064,6C14,42,14,39.688,14,38 c0-1.337,0-3,6-3C22.364,35,23.947,34.434,25,33.61 M27,6c-1.6,0-2,1-2,2v21c0,2.214-1.033,4-5,4c-5.661,0-8,1.464-8,5 c0,2.383,0.489,6,7.936,6C26.855,44,27,38.682,27,36c0-1.027,0-3.903,0-7V17c0.005-1.355,0.2-2,1-2c5.138,0,3.871,3,11,3 c0,0,2,0,2-1.699c0-2.555,0-4.363,0-5.333c0-1.533-0.688-1.893-1.962-1.893C31.925,9.076,33.674,6,27,6L27,6z"/></svg>