<svg fill="#000000" xmlns="http://www.w3.org/2000/svg"  viewBox="0 0 48 48" width="48px" height="48px"><path d="M38,19c0.071,0,1.5,0,1.5,0c0.828,0,1.5-0.672,1.5-1.5v-6C41,9.567,39.433,8,37.5,8H30c0,0,0-0.667,0-1c0-2.761-2.239-5-5-5	s-5,2.239-5,5c0,0.343,0,1,0,1h-7.5C10.567,8,9,9.567,9,11.5V19c0,0-0.657,0-1,0c-2.761,0-5,2.239-5,5s2.239,5,5,5c0.343,0,1,0,1,0	v7.5c0,1.933,1.567,3.5,3.5,3.5H20c0,0,0,0.657,0,1c0,2.761,2.239,5,5,5s5-2.239,5-5c0-0.343,0-1,0-1h7.5c1.933,0,3.5-1.567,3.5-3.5	v-6c0-0.825-0.677-1.5-1.502-1.5c-1.624,0-1.009,0-1.496,0c0,0-0.001,0-0.001,0c-2.761,0-5-2.239-5-5S35.239,19,38,19z"/></svg>