<?xml version="1.0"?>
<svg xmlns="http://www.w3.org/2000/svg" xmlns:xlink="http://www.w3.org/1999/xlink" version="1.1" viewBox="0 0 252 252" width="100px" height="100px"><g fill="none" fill-rule="nonzero" stroke="none" stroke-width="1" stroke-linecap="butt" stroke-linejoin="miter" stroke-miterlimit="10" stroke-dasharray="" stroke-dashoffset="0" font-family="none" font-weight="none" font-size="none" text-anchor="none" style="mix-blend-mode: normal"><path d="M0,252v-252h252v252z" fill="none"/><g id="original-icon" fill="#000000" opacity="0" visibility="hidden"><path d="M33.6,25.2c-9.282,0 -16.8,7.518 -16.8,16.8v25.2h92.4h126v-8.4c0,-9.282 -7.518,-16.8 -16.8,-16.8h-124.32656l-5.18438,-8.64609c-3.0324,-5.0568 -8.49949,-8.15391 -14.40469,-8.15391zM25.2,84c-4.6368,0 -8.4,3.7632 -8.4,8.4v100.8c0,9.282 7.518,16.8 16.8,16.8h184.8c9.282,0 16.8,-7.518 16.8,-16.8v-100.8c0,-4.6368 -3.7632,-8.4 -8.4,-8.4z"/></g><g id="subtracted-icon" fill="#000000"><path d="M74.48438,25.2c5.9052,0 11.37229,3.09711 14.40469,8.15391l5.18438,8.64609h124.32656c9.282,0 16.8,7.518 16.8,16.8v8.4h-218.4v-25.2c0,-9.282 7.518,-16.8 16.8,-16.8zM226.8,84c4.6368,0 8.4,3.7632 8.4,8.4v37.92857c-12.0124,-8.04002 -26.4581,-12.72857 -42,-12.72857c-41.7564,0 -75.6,33.8436 -75.6,75.6c0,5.77416 0.64716,11.39702 1.8729,16.8h-85.8729c-9.282,0 -16.8,-7.518 -16.8,-16.8v-100.8c0,-4.6368 3.7632,-8.4 8.4,-8.4z"/></g><g fill="#000000"><g id="Layer_1"><path d="M193.2,134.4c-32.4744,0 -58.8,26.3256 -58.8,58.8c0,32.4744 26.3256,58.8 58.8,58.8c32.4744,0 58.8,-26.3256 58.8,-58.8c0,-32.4744 -26.3256,-58.8 -58.8,-58.8zM218.4,201.6h-16.8v16.8c0,4.6452 -3.7632,8.4 -8.4,8.4c-4.6368,0 -8.4,-3.7548 -8.4,-8.4v-16.8h-16.8c-4.6368,0 -8.4,-3.7548 -8.4,-8.4c0,-4.6452 3.7632,-8.4 8.4,-8.4h16.8v-16.8c0,-4.6452 3.7632,-8.4 8.4,-8.4c4.6368,0 8.4,3.7548 8.4,8.4v16.8h16.8c4.6368,0 8.4,3.7548 8.4,8.4c0,4.6452 -3.7632,8.4 -8.4,8.4z"/></g></g></g></svg>
