<?xml version="1.0" encoding="utf-8"?>
<!-- Generator: Adobe Illustrator 16.0.0, SVG Export Plug-In . SVG Version: 6.00 Build 0)  -->
<!DOCTYPE svg PUBLIC "-//W3C//DTD SVG 1.1//EN" "http://www.w3.org/Graphics/SVG/1.1/DTD/svg11.dtd">
<svg version="1.1" id="Layer_1" xmlns="http://www.w3.org/2000/svg" xmlns:xlink="http://www.w3.org/1999/xlink" x="0px" y="0px"
	 width="64px" height="64px" viewBox="0 0 64 64" enable-background="new 0 0 64 64" xml:space="preserve">
<g id="TICK_1_" enable-background="new    ">
	<g id="TICK">
		<g>
			<path style='fill:#656565' d="M50,18c-0.828,0-1.578,0.336-2.121,0.879L27,39.757L16.121,28.879C15.578,28.336,14.828,28,14,28c-1.657,0-3,1.343-3,3
				c0,0.828,0.336,1.578,0.879,2.121l13,13C25.422,46.664,26.172,47,27,47s1.578-0.336,2.121-0.879l23-23
				C52.664,22.579,53,21.828,53,21C53,19.343,51.657,18,50,18z"/>
		</g>
	</g>
</g>
</svg>
