<?xml version="1.0" encoding="UTF-8" standalone="no"?>
<!-- Uploaded to: SVG Repo, www.svgrepo.com, Generator: SVG Repo Mixer Tools -->

<svg
   fill="#000000"
   width="700"
   height="700"
   viewBox="-1.7 0 17.85 17.85"
   class="cf-icon-svg"
   version="1.1"
   id="svg1"
   sodipodi:docname="wait-6.svg"
   inkscape:version="1.3.2 (091e20e, 2023-11-25)"
   xmlns:inkscape="http://www.inkscape.org/namespaces/inkscape"
   xmlns:sodipodi="http://sodipodi.sourceforge.net/DTD/sodipodi-0.dtd"
   xmlns="http://www.w3.org/2000/svg"
   xmlns:svg="http://www.w3.org/2000/svg">
  <defs
     id="defs1">
    <inkscape:path-effect
       effect="fillet_chamfer"
       id="path-effect1"
       is_visible="true"
       lpeversion="1"
       nodesatellites_param="F,0,0,1,0,2,0,1 @ F,0,0,1,0,2,0,1 @ F,0,0,1,0,2,0,1 @ F,0,0,1,0,2,0,1"
       radius="2"
       unit="px"
       method="auto"
       mode="F"
       chamfer_steps="1"
       flexible="false"
       use_knot_distance="true"
       apply_no_radius="true"
       apply_with_radius="true"
       only_selected="false"
       hide_knots="false" />
  </defs>
  <sodipodi:namedview
     id="namedview1"
     pagecolor="#ffffff"
     bordercolor="#000000"
     borderopacity="0.25"
     inkscape:showpageshadow="2"
     inkscape:pageopacity="0.0"
     inkscape:pagecheckerboard="0"
     inkscape:deskcolor="#d1d1d1"
     inkscape:zoom="0.75375"
     inkscape:cx="400"
     inkscape:cy="400"
     inkscape:window-width="3168"
     inkscape:window-height="1212"
     inkscape:window-x="0"
     inkscape:window-y="25"
     inkscape:window-maximized="0"
     inkscape:current-layer="svg1" />
  <g
     inkscape:groupmode="layer"
     id="layer1"
     inkscape:label="background"
     style="display:inline">
    <path
       style="fill:#ffffff;fill-opacity:0.5;stroke-width:0.000714"
       id="rect1"
       width="20.4"
       height="20.4"
       x="-1.7"
       y="0"
       inkscape:path-effect="#path-effect1"
       sodipodi:type="rect"
       d="M 0.29999995,0 H 16.7 a 2,2 45 0 1 2,2 v 16.4 a 2,2 135 0 1 -2,2 H 0.29999995 A 2,2 45 0 1 -1.7,18.4 V 2 A 2,2 135 0 1 0.29999995,0 Z"
       transform="matrix(0.87500002,0,0,0.87500002,-0.21249998,0)" />
    <circle
       style="fill:#eeeeee;fill-opacity:1;stroke-width:0.000811322"
       id="path2"
       cx="7.48"
       cy="9.1800003"
       r="7.6500001" />
  </g>
  <path
     d="M 7.4921454,1.2750605 A 7.917,7.917 0 1 1 -0.42485417,9.1910601 7.916,7.916 0 0 1 7.4921454,1.2750605 Z M 4.538146,13.14506 a 5.084,5.084 0 0 0 2.1389995,0.908 0.792,0.792 0 0 0 0.9150005,-0.646 0.813,0.813 0 0 0 0.011,-0.134999 0.792,0.792 0 0 0 -0.6570032,-0.779998 3.506,3.506 0 0 1 -1.2900005,-0.498 l 0.3240031,-3e-6 a 0.79200039,0.79200039 0 0 0 5e-7,-1.584 l -2.2340006,0 a 0.792,0.792 0 0 0 -0.7919996,0.792 l -2e-7,2.234 a 0.79200001,0.79200001 0 0 0 1.5839999,0 z m 4.8649997,-1.117 a 3.548,3.548 0 0 1 -0.5800004,0.285 0.792,0.792 0 1 0 0.5660008,1.479 5.097,5.097 0 0 0 0.8389989,-0.412 0.792,0.792 0 1 0 -0.8249993,-1.352 z m 1.5180003,-1.941 a 3.54,3.54 0 0 1 -0.249,0.596 0.792,0.792 0 0 0 1.398999,0.742 5.163,5.163 0 0 0 0.360001,-0.862 0.792,0.792 0 1 0 -1.51,-0.476 z M 4.0341457,8.9510596 a 0.792,0.792 0 0 0 -1.5829992,-0.014 l 0,0.00806 a 0.792,0.792 0 1 0 1.583027,0.027969 l 7.07e-5,-0.007 z M 12.364146,7.3500598 a 0.792,0.792 0 1 0 -1.495001,0.523 3.381,3.381 0 0 1 0.092,0.3090001 0.792,0.792 0 0 0 1.560001,-0.1899998 0.806,0.806 0 0 0 -0.023,-0.193 c -0.038,-0.1509981 -0.083,-0.3020003 -0.134,-0.4500003 z M 4.6761458,6.7690599 a 0.792,0.792 0 0 0 -1.467,-0.414 l -0.00197,0.00297 a 0.792,0.792 0 0 0 1.3459749,0.8350252 l 0.007,-0.012954 a 0.787,0.787 0 0 0 0.1159997,-0.411016 z m 4.6920001,-1.722 a 0.792,0.792 0 0 0 0.1949998,1.1029999 3.574,3.574 0 0 1 0.2560023,0.1959972 0.792,0.792 0 0 0 1.023001,-1.208 C 10.72215,5.0380552 10.598151,4.9410543 10.471152,4.8520543 A 0.792,0.792 0 0 0 9.3681459,5.0470599 Z m -3.4580001,0.8759999 0.01295,-0.00701 a 0.792,0.792 0 0 0 -0.744,-1.3979999 l -0.002,0.002 a 0.792,0.792 0 1 0 0.7330011,1.402999 z M 6.9761456,4.6900595 a 0.792,0.792 0 0 0 0.7499992,0.8300012 3.623,3.623 0 0 1 0.1299952,0.010001 0.791,0.791 0 0 0 0.8569971,-0.7200022 0.767,0.767 0 0 0 0.004,-0.070001 0.792,0.792 0 0 0 -0.7229969,-0.7870042 c -0.061997,-0.006 -0.1239975,-0.010001 -0.1869995,-0.013 a 0.791,0.791 0 0 0 -0.830001,0.749999 z"
     id="path1" />
</svg>
