<?xml version="1.0" encoding="UTF-8" standalone="no"?>
<!-- Uploaded to: SVG Repo, www.svgrepo.com, Generator: SVG Repo Mixer Tools -->

<svg
   fill="#000000"
   width="700"
   height="700"
   viewBox="-1.7 0 17.85 17.85"
   class="cf-icon-svg"
   version="1.1"
   id="svg1"
   sodipodi:docname="wait-5.svg"
   inkscape:version="1.3.2 (091e20e, 2023-11-25)"
   xmlns:inkscape="http://www.inkscape.org/namespaces/inkscape"
   xmlns:sodipodi="http://sodipodi.sourceforge.net/DTD/sodipodi-0.dtd"
   xmlns="http://www.w3.org/2000/svg"
   xmlns:svg="http://www.w3.org/2000/svg">
  <defs
     id="defs1">
    <inkscape:path-effect
       effect="fillet_chamfer"
       id="path-effect1"
       is_visible="true"
       lpeversion="1"
       nodesatellites_param="F,0,0,1,0,2,0,1 @ F,0,0,1,0,2,0,1 @ F,0,0,1,0,2,0,1 @ F,0,0,1,0,2,0,1"
       radius="2"
       unit="px"
       method="auto"
       mode="F"
       chamfer_steps="1"
       flexible="false"
       use_knot_distance="true"
       apply_no_radius="true"
       apply_with_radius="true"
       only_selected="false"
       hide_knots="false" />
  </defs>
  <sodipodi:namedview
     id="namedview1"
     pagecolor="#ffffff"
     bordercolor="#000000"
     borderopacity="0.25"
     inkscape:showpageshadow="2"
     inkscape:pageopacity="0.0"
     inkscape:pagecheckerboard="0"
     inkscape:deskcolor="#d1d1d1"
     inkscape:zoom="0.75375"
     inkscape:cx="400"
     inkscape:cy="400"
     inkscape:window-width="3168"
     inkscape:window-height="1212"
     inkscape:window-x="0"
     inkscape:window-y="25"
     inkscape:window-maximized="0"
     inkscape:current-layer="svg1" />
  <g
     inkscape:groupmode="layer"
     id="layer1"
     inkscape:label="background"
     style="display:inline">
    <path
       style="fill:#ffffff;fill-opacity:0.5;stroke-width:0.000714"
       id="rect1"
       width="20.4"
       height="20.4"
       x="-1.7"
       y="0"
       inkscape:path-effect="#path-effect1"
       sodipodi:type="rect"
       d="M 0.29999995,0 H 16.7 a 2,2 45 0 1 2,2 v 16.4 a 2,2 135 0 1 -2,2 H 0.29999995 A 2,2 45 0 1 -1.7,18.4 V 2 A 2,2 135 0 1 0.29999995,0 Z"
       transform="matrix(0.87500002,0,0,0.87500002,-0.21249998,0)" />
    <circle
       style="fill:#eeeeee;fill-opacity:1;stroke-width:0.000811322"
       id="path2"
       cx="7.48"
       cy="9.1800003"
       r="7.6500001" />
  </g>
  <path
     d="M 1.8940418,3.5937499 A 7.917,7.917 0 1 1 1.8933347,14.789371 7.916,7.916 0 0 1 1.8940418,3.5937499 Z M 8.1986058,14.0759 A 5.084,5.084 0 0 0 10.35316,13.205452 0.792,0.792 0 0 0 10.543372,12.101658 0.813,0.813 0 0 0 10.455691,11.998421 0.792,0.792 0 0 0 9.4395782,11.911451 3.506,3.506 0 0 1 8.175271,12.47148 L 8.4043736,12.242373 A 0.79200015,0.79200015 0 0 0 7.2843162,11.122315 l -1.5796769,1.579677 a 0.792,0.792 0 0 0 4e-7,1.120057 l 1.5796767,1.579677 A 0.79200001,0.79200001 0 0 0 8.4043736,14.281669 Z M 10.848842,9.8459876 a 3.548,3.548 0 0 1 -0.208597,0.6116474 0.792,0.792 0 1 0 1.446034,0.645588 5.097,5.097 0 0 0 0.301934,-0.88459 0.792,0.792 0 1 0 -1.539371,-0.3726454 z M 10.549736,7.4001046 A 3.54,3.54 0 0 1 10.795102,7.9976107 0.792,0.792 0 0 0 12.309017,7.5330416 5.163,5.163 0 0 0 11.95405,6.6689567 0.792,0.792 0 1 0 10.549736,7.4001046 Z M 4.8766178,11.466676 a 0.792,0.792 0 0 0 -1.1292489,1.10945 l 0.0057,0.0057 a 0.792,0.792 0 1 0 1.1391462,-1.099592 l -0.0049,-0.005 z M 9.6347394,4.4443987 A 0.792,0.792 0 1 0 8.9474314,5.8713404 3.381,3.381 0 0 1 9.2309812,6.0247827 0.792,0.792 0 0 0 10.199718,4.7873456 0.806,0.806 0 0 0 10.046983,4.6671374 C 9.9133395,4.5872373 9.7747464,4.5122811 9.6340323,4.4436916 Z M 3.7876736,9.4698066 A 0.792,0.792 0 0 0 2.4576057,10.21439 l 7.071e-4,0.0035 A 0.792,0.792 0 0 0 4.0005127,9.856594 l -0.00421,-0.01411 A 0.787,0.787 0 0 0 3.7876947,9.4698276 Z m 2.1001072,-4.535383 a 0.792,0.792 0 0 0 0.9178244,0.642053 3.574,3.574 0 0 1 0.3196119,-0.04243 0.792,0.792 0 0 0 -0.1308144,-1.5775556 c -0.1555638,0.01414 -0.3118339,0.03323 -0.4645689,0.0601 a 0.792,0.792 0 0 0 -0.642053,0.9178329 z m -1.8257498,3.0646008 0.0042,-0.014114 A 0.792,0.792 0 0 0 2.5516084,7.5224626 v 0.00283 A 0.792,0.792 0 1 0 4.0619885,7.9990527 Z M 3.9439438,6.3733858 a 0.792,0.792 0 0 0 1.117229,0.05657 3.623,3.623 0 0 1 0.098992,-0.084849 0.791,0.791 0 0 0 0.09687,-1.1151069 0.767,0.767 0 0 0 -0.04667,-0.052327 0.792,0.792 0 0 0 -1.067732,-0.04526 c -0.048081,0.039596 -0.094751,0.080608 -0.141421,0.1230362 a 0.791,0.791 0 0 0 -0.05657,1.1172288 z"
     id="path1" />
</svg>
