<?xml version="1.0" encoding="UTF-8" standalone="no"?>
<!-- Uploaded to: SVG Repo, www.svgrepo.com, Generator: SVG Repo Mixer Tools -->

<svg
   fill="#000000"
   width="700"
   height="700"
   viewBox="-1.7 0 17.85 17.85"
   class="cf-icon-svg"
   version="1.1"
   id="svg1"
   sodipodi:docname="wait-0.svg"
   inkscape:version="1.3.2 (091e20e, 2023-11-25)"
   xmlns:inkscape="http://www.inkscape.org/namespaces/inkscape"
   xmlns:sodipodi="http://sodipodi.sourceforge.net/DTD/sodipodi-0.dtd"
   xmlns="http://www.w3.org/2000/svg"
   xmlns:svg="http://www.w3.org/2000/svg">
  <defs
     id="defs1">
    <inkscape:path-effect
       effect="fillet_chamfer"
       id="path-effect1"
       is_visible="true"
       lpeversion="1"
       nodesatellites_param="F,0,0,1,0,2,0,1 @ F,0,0,1,0,2,0,1 @ F,0,0,1,0,2,0,1 @ F,0,0,1,0,2,0,1"
       radius="2"
       unit="px"
       method="auto"
       mode="F"
       chamfer_steps="1"
       flexible="false"
       use_knot_distance="true"
       apply_no_radius="true"
       apply_with_radius="true"
       only_selected="false"
       hide_knots="false" />
  </defs>
  <sodipodi:namedview
     id="namedview1"
     pagecolor="#ffffff"
     bordercolor="#000000"
     borderopacity="0.25"
     inkscape:showpageshadow="2"
     inkscape:pageopacity="0.0"
     inkscape:pagecheckerboard="0"
     inkscape:deskcolor="#d1d1d1"
     inkscape:zoom="0.75375"
     inkscape:cx="400"
     inkscape:cy="400"
     inkscape:window-width="3168"
     inkscape:window-height="1212"
     inkscape:window-x="0"
     inkscape:window-y="25"
     inkscape:window-maximized="0"
     inkscape:current-layer="layer1" />
  <g
     inkscape:groupmode="layer"
     id="layer1"
     inkscape:label="background"
     style="display:inline">
    <path
       style="fill:#ffffff;fill-opacity:0.5;stroke-width:0.000714"
       id="rect1"
       width="20.4"
       height="20.4"
       x="-1.7"
       y="0"
       inkscape:path-effect="#path-effect1"
       sodipodi:type="rect"
       d="M 0.29999995,0 H 16.7 a 2,2 45 0 1 2,2 v 16.4 a 2,2 135 0 1 -2,2 H 0.29999995 A 2,2 45 0 1 -1.7,18.4 V 2 A 2,2 135 0 1 0.29999995,0 Z"
       transform="matrix(0.87500002,0,0,0.87500002,-0.21249998,0)" />
    <circle
       style="fill:#eeeeee;fill-opacity:1;stroke-width:0.000811322"
       id="path2"
       cx="7.48"
       cy="9.1800003"
       r="7.6500001" />
  </g>
  <path
     d="m 15.409,9.1920001 a 7.917,7.917 0 1 1 -7.916,-7.917 7.916,7.916 0 0 1 7.916,7.917 z m -11.87,-2.954 a 5.084,5.084 0 0 0 -0.908,2.139 0.792,0.792 0 0 0 0.646,0.915 0.813,0.813 0 0 0 0.135,0.011 0.792,0.792 0 0 0 0.78,-0.657 3.506,3.506 0 0 1 0.498,-1.29 v 0.324 a 0.792,0.792 0 0 0 1.584,0 v -2.234 a 0.792,0.792 0 0 0 -0.792,-0.792 H 3.248 a 0.792,0.792 0 0 0 0,1.584 z M 4.656,11.103 a 3.548,3.548 0 0 1 -0.285,-0.58 0.792,0.792 0 1 0 -1.479,0.566 5.097,5.097 0 0 0 0.412,0.839 0.792,0.792 0 1 0 1.352,-0.825 z m 1.941,1.518 a 3.54,3.54 0 0 1 -0.596,-0.249 0.792,0.792 0 0 0 -0.742,1.399 5.163,5.163 0 0 0 0.862,0.36 0.792,0.792 0 1 0 0.476,-1.51 z M 7.733,5.7340001 a 0.792,0.792 0 0 0 0.014,-1.583 H 7.739 a 0.792,0.792 0 1 0 -0.028,1.583 H 7.718 Z M 9.334,14.064 a 0.792,0.792 0 1 0 -0.523,-1.495 3.381,3.381 0 0 1 -0.309,0.092 0.792,0.792 0 0 0 0.19,1.56 0.806,0.806 0 0 0 0.193,-0.023 C 9.036,14.16 9.187,14.115 9.335,14.064 Z M 9.915,6.3760001 a 0.792,0.792 0 0 0 0.414,-1.467 l -0.003,-0.002 a 0.792,0.792 0 0 0 -0.835,1.346 l 0.013,0.007 a 0.787,0.787 0 0 0 0.411,0.116 z M 11.637,11.068 a 0.792,0.792 0 0 0 -1.103,0.195 3.574,3.574 0 0 1 -0.196,0.256 0.792,0.792 0 0 0 1.208,1.023 c 0.1,-0.12 0.197,-0.244 0.286,-0.371 a 0.792,0.792 0 0 0 -0.195,-1.103 z m -0.876,-3.4579999 0.007,0.013 a 0.792,0.792 0 0 0 1.398,-0.744 l -0.002,-0.002 a 0.792,0.792 0 1 0 -1.403,0.733 z m 1.233,1.066 a 0.792,0.792 0 0 0 -0.83,0.75 3.623,3.623 0 0 1 -0.01,0.13 0.791,0.791 0 0 0 0.72,0.8569999 0.767,0.767 0 0 0 0.07,0.004 0.792,0.792 0 0 0 0.787,-0.7229999 c 0.006,-0.062 0.01,-0.124 0.013,-0.187 a 0.791,0.791 0 0 0 -0.75,-0.83 z"
     id="path1" />
</svg>
