<?xml version="1.0" encoding="UTF-8" standalone="no"?>
<!-- Uploaded to: SVG Repo, www.svgrepo.com, Generator: SVG Repo Mixer Tools -->

<svg
   fill="#000000"
   width="700"
   height="700"
   viewBox="-1.7 0 17.85 17.85"
   class="cf-icon-svg"
   version="1.1"
   id="svg1"
   sodipodi:docname="wait-2.svg"
   inkscape:version="1.3.2 (091e20e, 2023-11-25)"
   xmlns:inkscape="http://www.inkscape.org/namespaces/inkscape"
   xmlns:sodipodi="http://sodipodi.sourceforge.net/DTD/sodipodi-0.dtd"
   xmlns="http://www.w3.org/2000/svg"
   xmlns:svg="http://www.w3.org/2000/svg">
  <defs
     id="defs1">
    <inkscape:path-effect
       effect="fillet_chamfer"
       id="path-effect1"
       is_visible="true"
       lpeversion="1"
       nodesatellites_param="F,0,0,1,0,2,0,1 @ F,0,0,1,0,2,0,1 @ F,0,0,1,0,2,0,1 @ F,0,0,1,0,2,0,1"
       radius="2"
       unit="px"
       method="auto"
       mode="F"
       chamfer_steps="1"
       flexible="false"
       use_knot_distance="true"
       apply_no_radius="true"
       apply_with_radius="true"
       only_selected="false"
       hide_knots="false" />
  </defs>
  <sodipodi:namedview
     id="namedview1"
     pagecolor="#ffffff"
     bordercolor="#000000"
     borderopacity="0.25"
     inkscape:showpageshadow="2"
     inkscape:pageopacity="0.0"
     inkscape:pagecheckerboard="0"
     inkscape:deskcolor="#d1d1d1"
     inkscape:zoom="0.75375"
     inkscape:cx="400"
     inkscape:cy="400"
     inkscape:window-width="3168"
     inkscape:window-height="1212"
     inkscape:window-x="0"
     inkscape:window-y="25"
     inkscape:window-maximized="0"
     inkscape:current-layer="svg1" />
  <g
     inkscape:groupmode="layer"
     id="layer1"
     inkscape:label="background"
     style="display:inline">
    <path
       style="fill:#ffffff;fill-opacity:0.5;stroke-width:0.000714"
       id="rect1"
       width="20.4"
       height="20.4"
       x="-1.7"
       y="0"
       inkscape:path-effect="#path-effect1"
       sodipodi:type="rect"
       d="M 0.29999995,0 H 16.7 a 2,2 45 0 1 2,2 v 16.4 a 2,2 135 0 1 -2,2 H 0.29999995 A 2,2 45 0 1 -1.7,18.4 V 2 A 2,2 135 0 1 0.29999995,0 Z"
       transform="matrix(0.87500002,0,0,0.87500002,-0.21249998,0)" />
    <circle
       style="fill:#eeeeee;fill-opacity:1;stroke-width:0.000811322"
       id="path2"
       cx="7.48"
       cy="9.1800003"
       r="7.6500001" />
  </g>
  <path
     d="M 7.4920604,17.108853 A 7.917,7.917 0 1 1 15.40906,9.1928537 7.916,7.916 0 0 1 7.4920604,17.108853 Z M 10.44606,5.238854 a 5.084,5.084 0 0 0 -2.1389997,-0.908 0.792,0.792 0 0 0 -0.915,0.646 0.813,0.813 0 0 0 -0.011,0.1349999 0.792,0.792 0 0 0 0.657,0.7800001 3.506,3.506 0 0 1 1.29,0.498 h -0.324 a 0.79200001,0.79200001 0 0 0 10e-8,1.584 H 11.23806 a 0.792,0.792 0 0 0 0.792,-0.792 l 0,-2.234 a 0.79200001,0.79200001 0 0 0 -1.584,-1e-7 z M 5.5810604,6.3558539 a 3.548,3.548 0 0 1 0.5799999,-0.2849999 0.792,0.792 0 1 0 -0.5659999,-1.479 5.097,5.097 0 0 0 -0.839,0.412 0.792,0.792 0 1 0 0.825,1.3519999 z M 4.0630601,8.2968543 A 3.54,3.54 0 0 1 4.3120607,7.7008538 0.792,0.792 0 0 0 2.9130607,6.9588536 5.163,5.163 0 0 0 2.5530604,7.820854 0.792,0.792 0 1 0 4.0630601,8.2968543 Z M 10.95006,9.432854 a 0.792,0.792 0 0 0 1.583,0.014 l -2.8e-5,-0.00803 a 0.792,0.792 0 1 0 -1.583,-0.028 l -3.6e-5,0.00697 z m -8.3299996,1.601 a 0.792,0.792 0 1 0 1.4950003,-0.523 3.381,3.381 0 0 1 -0.092,-0.309 0.792,0.792 0 0 0 -1.5600001,0.19 0.806,0.806 0 0 0 0.023,0.193 c 0.038002,0.150998 0.083,0.302 0.1339998,0.45 z m 7.6879996,0.581 a 0.792,0.792 0 0 0 1.467,0.414 l 0.002,-0.003 a 0.792,0.792 0 0 0 -1.346,-0.835 l -0.007,0.01297 a 0.787,0.787 0 0 0 -0.116,0.411 z m -4.6919997,1.722 a 0.792,0.792 0 0 0 -0.1949999,-1.103 3.574,3.574 0 0 1 -0.2560025,-0.195997 0.792,0.792 0 0 0 -1.0230006,1.208 c 0.1199985,0.100002 0.2439972,0.197003 0.3709971,0.286003 a 0.792,0.792 0 0 0 1.1030059,-0.195006 z m 3.4580002,-0.876 -0.012968,0.007 a 0.792,0.792 0 0 0 0.7440001,1.398 l 0.00198,-0.002 a 0.792,0.792 0 1 0 -0.7329996,-1.403 z m -1.0660003,1.233 a 0.792,0.792 0 0 0 -0.7499991,-0.830001 3.623,3.623 0 0 1 -0.129998,-0.01 0.791,0.791 0 0 0 -0.8569993,0.72 0.767,0.767 0 0 0 -0.004,0.07 0.792,0.792 0 0 0 0.7229964,0.787004 c 0.061999,0.006 0.1239983,0.01 0.1869994,0.013 a 0.791,0.791 0 0 0 0.8300012,-0.749999 z"
     id="path1" />
</svg>
