<?xml version="1.0" encoding="UTF-8" standalone="no"?>
<!-- Uploaded to: SVG Repo, www.svgrepo.com, Generator: SVG Repo Mixer Tools -->

<svg
   fill="#000000"
   width="700"
   height="700"
   viewBox="-1.7 0 17.85 17.85"
   class="cf-icon-svg"
   version="1.1"
   id="svg1"
   sodipodi:docname="wait-7.svg"
   inkscape:version="1.3.2 (091e20e, 2023-11-25)"
   xmlns:inkscape="http://www.inkscape.org/namespaces/inkscape"
   xmlns:sodipodi="http://sodipodi.sourceforge.net/DTD/sodipodi-0.dtd"
   xmlns="http://www.w3.org/2000/svg"
   xmlns:svg="http://www.w3.org/2000/svg">
  <defs
     id="defs1">
    <inkscape:path-effect
       effect="fillet_chamfer"
       id="path-effect1"
       is_visible="true"
       lpeversion="1"
       nodesatellites_param="F,0,0,1,0,2,0,1 @ F,0,0,1,0,2,0,1 @ F,0,0,1,0,2,0,1 @ F,0,0,1,0,2,0,1"
       radius="2"
       unit="px"
       method="auto"
       mode="F"
       chamfer_steps="1"
       flexible="false"
       use_knot_distance="true"
       apply_no_radius="true"
       apply_with_radius="true"
       only_selected="false"
       hide_knots="false" />
  </defs>
  <sodipodi:namedview
     id="namedview1"
     pagecolor="#ffffff"
     bordercolor="#000000"
     borderopacity="0.25"
     inkscape:showpageshadow="2"
     inkscape:pageopacity="0.0"
     inkscape:pagecheckerboard="0"
     inkscape:deskcolor="#d1d1d1"
     inkscape:zoom="0.75375"
     inkscape:cx="400"
     inkscape:cy="400"
     inkscape:window-width="3168"
     inkscape:window-height="1212"
     inkscape:window-x="0"
     inkscape:window-y="25"
     inkscape:window-maximized="0"
     inkscape:current-layer="svg1" />
  <g
     inkscape:groupmode="layer"
     id="layer1"
     inkscape:label="background"
     style="display:inline">
    <path
       style="fill:#ffffff;fill-opacity:0.5;stroke-width:0.000714"
       id="rect1"
       width="20.4"
       height="20.4"
       x="-1.7"
       y="0"
       inkscape:path-effect="#path-effect1"
       sodipodi:type="rect"
       d="M 0.29999995,0 H 16.7 a 2,2 45 0 1 2,2 v 16.4 a 2,2 135 0 1 -2,2 H 0.29999995 A 2,2 45 0 1 -1.7,18.4 V 2 A 2,2 135 0 1 0.29999995,0 Z"
       transform="matrix(0.87500002,0,0,0.87500002,-0.21249998,0)" />
    <circle
       style="fill:#eeeeee;fill-opacity:1;stroke-width:0.000811322"
       id="path2"
       cx="7.48"
       cy="9.1800003"
       r="7.6500001" />
  </g>
  <path
     d="M 13.09031,3.5938958 A 7.917,7.917 0 1 1 1.8946888,3.5931888 7.916,7.916 0 0 1 13.09031,3.5938958 Z M 2.6081597,9.89846 a 5.084,5.084 0 0 0 0.8704481,2.154554 0.792,0.792 0 0 0 1.1037941,0.190212 0.813,0.813 0 0 0 0.1032368,-0.08768 0.792,0.792 0 0 0 0.08697,-1.016114 3.506,3.506 0 0 1 -0.5600289,-1.264307 l 0.2291069,0.229103 A 0.79200039,0.79200039 0 0 0 5.5617447,8.9841708 L 3.9820677,7.4044939 a 0.792,0.792 0 0 0 -1.1200569,2e-7 L 1.2823342,8.9841706 a 0.79200001,0.79200001 0 0 0 1.120057,1.1200574 z m 4.2299126,2.650236 A 3.548,3.548 0 0 1 6.2264246,12.340099 0.792,0.792 0 1 0 5.5808367,13.786133 5.097,5.097 0 0 0 6.4654265,14.088067 0.792,0.792 0 1 0 6.8380723,12.548696 Z M 9.2839548,12.24959 A 3.54,3.54 0 0 1 8.6864496,12.494956 0.792,0.792 0 0 0 9.1510181,14.008871 5.163,5.163 0 0 0 10.015103,13.653904 0.792,0.792 0 1 0 9.2839548,12.24959 Z M 5.2173838,6.5764718 a 0.792,0.792 0 0 0 -1.10945,-1.1292489 l -0.0057,0.0057 a 0.792,0.792 0 1 0 1.099592,1.1391462 l 0.005,-0.0049 z m 7.0222772,4.7581222 a 0.792,0.792 0 1 0 -1.426942,-0.687309 3.381,3.381 0 0 1 -0.153442,0.28355 0.792,0.792 0 0 0 1.237437,0.968737 0.806,0.806 0 0 0 0.120208,-0.152735 c 0.0799,-0.133642 0.154857,-0.272236 0.223446,-0.41295 z M 7.2142532,5.4875277 A 0.792,0.792 0 0 0 6.4696698,4.1574598 l -0.00349,7.071e-4 a 0.792,0.792 0 0 0 0.361296,1.5422 l 0.01411,-0.00421 A 0.787,0.787 0 0 0 7.2142387,5.4875487 Z m 4.5353828,2.1001072 a 0.792,0.792 0 0 0 -0.642053,0.9178244 3.574,3.574 0 0 1 0.04243,0.3196119 0.792,0.792 0 0 0 1.577556,-0.1308141 c -0.01414,-0.155564 -0.03323,-0.3118346 -0.0601,-0.4645689 A 0.792,0.792 0 0 0 11.749636,7.5876349 Z M 8.6850354,5.761885 l 0.014114,0.0042 A 0.792,0.792 0 0 0 9.161597,4.2514626 h -0.00283 A 0.792,0.792 0 1 0 8.6850085,5.7618427 Z M 10.310674,5.6437978 a 0.792,0.792 0 0 0 -0.05657,1.117229 3.623,3.623 0 0 1 0.08485,0.098992 0.791,0.791 0 0 0 1.115107,0.09687 0.767,0.767 0 0 0 0.05233,-0.04667 0.792,0.792 0 0 0 0.04526,-1.0677321 c -0.0396,-0.048081 -0.08061,-0.094751 -0.123036,-0.141421 a 0.791,0.791 0 0 0 -1.117229,-0.05657 z"
     id="path1" />
</svg>
