<?xml version="1.0" encoding="utf-8"?>
<!-- Generator: Adobe Illustrator 16.0.0, SVG Export Plug-In . SVG Version: 6.00 Build 0)  -->
<!DOCTYPE svg PUBLIC "-//W3C//DTD SVG 1.1//EN" "http://www.w3.org/Graphics/SVG/1.1/DTD/svg11.dtd">
<svg version="1.1" id="Layer_1" xmlns="http://www.w3.org/2000/svg" xmlns:xlink="http://www.w3.org/1999/xlink" x="0px" y="0px"
	 width="64px" height="64px" viewBox="0 0 64 64" enable-background="new 0 0 64 64" xml:space="preserve">
<g id="FOLDER__x2F__OK_2_" enable-background="new    ">
	<g id="FOLDER__x2F__OK_1_">
		<g>
			<path style='fill:#656565' d="M60,49h-3v-3c0-1.657-1.343-3-3-3s-3,1.343-3,3v3h-3c-1.657,0-3,1.343-3,3s1.343,3,3,3h3v3c0,1.657,1.343,3,3,3
				s3-1.343,3-3v-3h3c1.657,0,3-1.343,3-3S61.657,49,60,49z M0,51c0,1.657,1.343,3,3,3h39.367C42.145,53.372,42,52.705,42,52
				c0-3.314,2.686-6,6-6c0-3.314,2.686-6,6-6s6,2.686,6,6c1.544,0,2.938,0.6,4,1.557V19H0V51z M61,10H23.982L18,4H3
				C1.343,4,0,5.343,0,7v9h64v-3C64,11.343,62.657,10,61,10z"/>
		</g>
	</g>
</g>
</svg>
