<?xml version="1.0" encoding="iso-8859-1"?>
<!-- Generator: Adobe Illustrator 19.0.0, SVG Export Plug-In . SVG Version: 6.00 Build 0)  -->
<svg version="1.1" id="Layer_1" xmlns="http://www.w3.org/2000/svg" xmlns:xlink="http://www.w3.org/1999/xlink" x="0px" y="0px"
	 viewBox="0 0 480 480" style="enable-background:new 0 0 480 480;" xml:space="preserve">
<circle style="fill:#2A3332;" cx="240" cy="240" r="240"/>
<path style="fill:#121C1B;" d="M240,0c132.8,0,240,107.2,240,240S372.8,480,240,480"/>
<g>
	<path style="fill:#726C6A;" d="M97.6,382.4C19.2,304,19.2,176,97.6,97.6c3.2-3.2,8-3.2,10.4,0c3.2,3.2,3.2,8,0,10.4
		c-72.8,72.8-72.8,190.4,0,263.2c3.2,3.2,3.2,8,0,10.4C105.6,384.8,100.8,384.8,97.6,382.4z"/>
	<path style="fill:#726C6A;" d="M371.2,382.4c-3.2-3.2-3.2-8,0-10.4c72.8-72.8,72.8-190.4,0-263.2c-3.2-3.2-3.2-8,0-10.4
		c3.2-3.2,8-3.2,10.4,0c78.4,78.4,78.4,205.6,0,284C379.2,384.8,374.4,384.8,371.2,382.4z"/>
	<path style="fill:#726C6A;" d="M131.2,348.8c-60-60-60-157.6,0-217.6c3.2-3.2,8-3.2,10.4,0c3.2,3.2,3.2,8,0,10.4
		c-54.4,54.4-54.4,142.4,0,196.8c3.2,3.2,3.2,8,0,10.4C138.4,352,133.6,352,131.2,348.8z"/>
	<path style="fill:#726C6A;" d="M338.4,348.8c-3.2-3.2-3.2-8,0-10.4c54.4-54.4,54.4-142.4,0-196.8c-3.2-3.2-3.2-8,0-10.4
		c3.2-3.2,8-3.2,10.4,0c60,60,60,157.6,0,217.6C346.4,352,341.6,352,338.4,348.8z"/>
</g>
<path style="fill:#F74D19;" d="M376,240c0-66.4,43.2-123.2,104-142.4V30.4C480,13.6,466.4,0,449.6,0H30.4C13.6,0,0,13.6,0,30.4
	v419.2C0,466.4,13.6,480,30.4,480h419.2c16.8,0,30.4-13.6,30.4-30.4v-67.2C420,363.2,376,306.4,376,240z"/>
<path style="fill:#DB2B19;" d="M449.6,480c16.8,0,30.4-13.6,30.4-30.4v-67.2c-60-19.2-104-76-104-142.4s43.2-123.2,104-142.4V30.4
	C480,13.6,466.4,0,449.6,0H30.4C13.6,0,0,13.6,0,30.4"/>
<path style="fill:#D11E15;" d="M444.8,114.4c-9.6-16-21.6-30.4-34.4-44c-93.6-93.6-245.6-93.6-339.2,0s-93.6,245.6,0,339.2
	C116.8,456.8,178.4,480,240,480l0,0c61.6,0,122.4-23.2,169.6-70.4c13.6-13.6,24.8-28.8,34.4-44c-40.8-26.4-68-72.8-68-125.6
	S403.2,140.8,444.8,114.4z"/>
<path style="fill:#C11714;" d="M409.6,70.4C316-23.2,164-23.2,70.4,70.4c-4.8,4.8-9.6,10.4-14.4,16L393.6,424
	c5.6-4.8,11.2-9.6,16-14.4c13.6-13.6,24.8-28.8,34.4-44l0,0c-10.4-6.4-19.2-14.4-27.2-23.2l-0.8-0.8c-1.6-1.6-3.2-4-5.6-6.4
	c0-0.8-0.8-0.8-0.8-1.6c-4.8-6.4-9.6-12.8-13.6-19.2c-0.8-0.8-1.6-2.4-1.6-3.2c-0.8-1.6-1.6-3.2-2.4-4.8c-0.8-1.6-1.6-3.2-2.4-4.8
	c-0.8-1.6-1.6-3.2-2.4-4.8c-0.8-1.6-1.6-4-2.4-6.4c0-0.8-0.8-2.4-0.8-3.2c-0.8-3.2-2.4-6.4-3.2-9.6c0-1.6-0.8-2.4-0.8-4
	c-0.8-2.4-0.8-4.8-1.6-7.2c0-1.6-0.8-2.4-0.8-4c0-2.4-0.8-4.8-0.8-7.2c0-0.8,0-2.4,0-3.2c0-4-0.8-7.2-0.8-11.2s0-7.2,0.8-11.2
	c0-0.8,0-2.4,0-3.2c0-2.4,0.8-4.8,0.8-7.2c0-1.6,0.8-2.4,0.8-4c0.8-2.4,0.8-4.8,1.6-7.2c0-1.6,0.8-2.4,0.8-4
	c0.8-3.2,1.6-6.4,3.2-9.6c0.8-1.6,0.8-2.4,1.6-4c0.8-2.4,1.6-4,2.4-6.4c0.8-1.6,1.6-3.2,2.4-4.8s1.6-3.2,2.4-4.8s1.6-3.2,2.4-4.8
	c0.8-0.8,1.6-2.4,1.6-3.2c4-6.4,8-13.6,13.6-19.2c0-0.8,0.8-0.8,0.8-1.6c1.6-2.4,3.2-4,5.6-5.6l0.8-0.8c8-8.8,17.6-16,27.2-23.2l0,0
	C435.2,98.4,423.2,84,409.6,70.4z"/>
<path style="fill:#B0CCD1;" d="M240,350.4c-29.6,0-57.6-11.2-78.4-32.8c-43.2-43.2-43.2-113.6,0-156.8c20.8-20.8,48.8-32,78.4-32
	s57.6,11.2,78.4,32c43.2,43.2,43.2,113.6,0,156.8C297.6,339.2,269.6,350.4,240,350.4z"/>
<path style="fill:#364444;" d="M240,136.8c26.4,0,52.8,10.4,72.8,30.4c40,40,40,105.6,0,145.6c-20,20-46.4,30.4-72.8,30.4
	s-52.8-10.4-72.8-30.4c-40-40-40-105.6,0-145.6C187.2,147.2,213.6,136.8,240,136.8 M240,121.6c-31.2,0-61.6,12-83.2,34.4
	c-22.4,22.4-34.4,52-34.4,83.2s12,61.6,34.4,83.2c22.4,22.4,52,34.4,83.2,34.4s61.6-12,83.2-34.4c46.4-46.4,46.4-120.8,0-167.2
	C301.6,134.4,271.2,121.6,240,121.6L240,121.6z"/>
<path style="fill:#BFD5D8;" d="M136.8,240c0-56.8,46.4-103.2,103.2-103.2S343.2,183.2,343.2,240"/>
<path style="fill:#9BB6BC;" d="M259.2,224.8l-36.8,36.8l68,68c8-4.8,15.2-9.6,22.4-16.8c5.6-5.6,11.2-12,15.2-19.2L259.2,224.8z"/>
<circle style="fill:#121C1B;" cx="240" cy="240" r="28.8"/>
<path style="fill:#364444;" d="M240,268.8c-16,0-28.8-12.8-28.8-28.8s12.8-28.8,28.8-28.8"/>
<g>
</g>
<g>
</g>
<g>
</g>
<g>
</g>
<g>
</g>
<g>
</g>
<g>
</g>
<g>
</g>
<g>
</g>
<g>
</g>
<g>
</g>
<g>
</g>
<g>
</g>
<g>
</g>
<g>
</g>
</svg>
